<?xml version="1.0" encoding="utf-8"?>
<!-- Generator: Adobe Illustrator 22.0.1, SVG Export Plug-In . SVG Version: 6.00 Build 0)  -->
<svg version="1.1" id="Layer_2_1_" xmlns="http://www.w3.org/2000/svg" xmlns:xlink="http://www.w3.org/1999/xlink" x="0px" y="0px"
	 viewBox="0 0 200 200" style="enable-background:new 0 0 200 200;" xml:space="preserve">
<style type="text/css">
	.st0{fill:none;}
	.st1{fill:#FFFFFF;}
</style>
<g>
	<path class="st0" d="M105.6,98.7v1.7h1.9v-1.7h0.5v4h-0.5v-1.9h-1.9v1.9h-0.5v-4H105.6z"/>
	<path class="st0" d="M108.9,98.7h0.5v3.5h1.7v0.4h-2.2V98.7z"/>
	<path class="st0" d="M111.9,99.1h-1.2v-0.4h2.9v0.4h-1.2v3.5h-0.5C111.9,102.6,111.9,99.1,111.9,99.1z"/>
	<path class="st0" d="M115.2,102.7l-1.3-4h0.6l0.6,2c0.2,0.5,0.3,1,0.4,1.5l0,0c0.1-0.5,0.3-1,0.5-1.5l0.7-2h0.5l-1.4,4H115.2z"/>
	<path class="st0" d="M117.2,102.4c0-0.2,0.1-0.4,0.4-0.4c0.2,0,0.3,0.2,0.3,0.4c0,0.2-0.1,0.4-0.4,0.4
		C117.3,102.8,117.2,102.6,117.2,102.4z"/>
	<path class="st0" d="M121.1,101.2c0,1.1-0.7,1.5-1.4,1.5c-0.8,0-1.4-0.6-1.4-1.5c0-1,0.6-1.5,1.4-1.5
		C120.5,99.8,121.1,100.4,121.1,101.2z M118.7,101.3c0,0.6,0.4,1.1,0.9,1.1s0.9-0.5,0.9-1.1c0-0.5-0.2-1.1-0.9-1.1
		C118.9,100.2,118.7,100.7,118.7,101.3z"/>
	<path class="st0" d="M121.7,100.7c0-0.3,0-0.6,0-0.9h0.5v0.6l0,0c0.1-0.4,0.4-0.6,0.8-0.6c0.1,0,0.1,0,0.1,0v0.5
		c-0.1,0-0.1,0-0.2,0c-0.4,0-0.6,0.3-0.7,0.7c0,0.1,0,0.2,0,0.2v1.5h-0.5C121.8,102.7,121.8,100.7,121.7,100.7z"/>
	<path class="st0" d="M126.1,99.8c0,0.2,0,0.4,0,0.8v1.7c0,0.7-0.1,1.1-0.4,1.3c-0.3,0.3-0.7,0.3-1,0.3s-0.7-0.1-1-0.2l0.1-0.4
		c0.2,0.1,0.5,0.2,0.8,0.2c0.5,0,0.9-0.3,0.9-1v-0.3l0,0c-0.2,0.3-0.5,0.5-0.9,0.5c-0.7,0-1.2-0.6-1.2-1.4c0-1,0.6-1.5,1.3-1.5
		c0.5,0,0.8,0.3,0.9,0.5l0,0v-0.4L126.1,99.8L126.1,99.8z M125.6,101c0-0.1,0-0.2,0-0.2c-0.1-0.3-0.3-0.5-0.7-0.5
		c-0.5,0-0.8,0.4-0.8,1.1c0,0.6,0.3,1,0.8,1c0.3,0,0.6-0.2,0.7-0.5c0-0.1,0-0.2,0-0.3V101z"/>
</g>
<g>
	<path d="M165.9,87c0.4-0.3,2.6-2.1,2.6-3.9c-0.7-32.2-13.9-41.2-13.9-41.2c-1.2,15.6-4.4,32.9-4.4,32.9l2.4,2.3
		c-1.8,0.4-3.9,1.5-6,3.7c-0.8,0.9-1.6,2-2.4,3.2l0,0c0.1-0.9,0.1-1.9,0.1-2.8c0-3-0.2-6-0.7-8.9c-0.3-2.1-0.8-4.1-1.3-5.9
		c-0.7-2.7-1.5-4.7-2.2-6.2c-0.7-0.9-1.3-1.9-1.5-3c0-0.2,0.1-0.3,0.2-0.4v-0.1c0.1,0,0.1,0,0.2,0c0.7-0.4,2.1-0.6,3.3-0.6
		c2.7-0.9,4.4-2.8,3.6-6.3c-5.6-27.7-17.5-35.3-17.5-35.3c-0.8,4.8-2.9,27.7-2.7,30.8c0.1,4.3,6,5,3.9,8
		c-7.7,2.8-10.2,9.2-11.1,12.7c0,0.1-0.1,0.2-0.1,0.3c-0.1,0.4-0.2,0.8-0.3,1.1l0,0c-0.2-4.3-1.6-8.3-3.4-11.7
		c-0.2-0.3-0.3-0.6-0.5-0.9c-1.5-2.9-3.4-5.3-5.5-7c-0.3-0.2-0.5-0.4-0.8-0.6c-0.5-0.4-1.1-0.8-1.5-1c2.2,0,6.8,0.2,6.3-5.1
		C109,9.2,100,1.8,100,1.8l0,0c0,0-9,7.4-12.7,39.1c-0.5,5.3,4.2,5.1,6.3,5.1c-0.4,0.2-1,0.6-1.5,1c-0.3,0.2-0.5,0.4-0.8,0.6
		c-2.1,1.7-4,4.1-5.5,7c-0.2,0.3-0.3,0.6-0.5,0.9c-1.8,3.4-3.2,7.4-3.4,11.7l0,0c-0.1-0.4-0.2-0.8-0.3-1.1c0-0.1-0.1-0.2-0.1-0.3
		c-0.8-3.5-3.4-9.9-11.1-12.7c-2.1-2.9,3.8-3.7,3.9-8c0.1-3-2-26-2.6-30.8c0,0-11.9,7.6-17.5,35.3c-0.8,3.4,0.8,5.3,3.6,6.3
		c1.2,0.1,2.6,0.2,3.3,0.6c0.1,0,0.1,0,0.2,0v0.1c0.1,0.1,0.2,0.3,0.2,0.4c-0.2,1.1-0.8,2.1-1.5,3c-0.7,1.6-1.5,3.6-2.2,6.2
		c-0.5,1.8-1,3.8-1.3,5.9C56,75,55.8,78,55.8,81c0,1,0,1.9,0.1,2.8l0,0c-0.7-1.2-1.5-2.3-2.4-3.2c-2.1-2.2-4.2-3.3-6-3.7l2.4-2.3
		c0,0-3.3-17.3-4.4-32.9c0,0-13.2,9-13.9,41.2c0,1.8,2.2,3.6,2.6,3.9c-0.1,0.3-0.2,0.6-0.2,0.9c-0.7,2.8-0.9,6-0.6,9.2
		c0.3,2.7,0.7,5.1,1.4,7.4c0.7,2.2,1.6,4.2,2.8,5.8c1.2,1.8,2.6,3.2,4.2,4.2c1.1,0.7,2.3,1.2,3.5,1.5c-0.7,0.4-2,1.1-3.9,1.9
		c-3.1,1.3-3.4,3.7-3.1,7.9s2.7,40.6,26.1,59.9c13.9,4.9,19.3,1.3,19.3,1.3v5.7c0,4.9,7.7,5.4,16.3,5.4l0,0c8.6,0,14.5-0.5,14.5-5.4
		l0.2-5.9c1.5,1.5,4.9,5.1,9.8,5.1c14.1,0,34-26.2,36.2-43.3c-0.3-3.3,0.4-3.6,1.6-6.4c1.5-5,0.9-23.4,0.9-23.4
		c-1.8-2.2-3.6-3.5-5.1-4.2c0.1,0,0.1-0.1,0.2-0.1c1.6-1,3-2.4,4.2-4.2c1.1-1.7,2.1-3.6,2.8-5.8c0.7-2.2,1.2-4.7,1.4-7.4
		c0.3-3.2,0.1-6.4-0.6-9.2C166.1,87.6,166,87.3,165.9,87z"/>
	<path class="st1" d="M130.5,59.8c-5.7,0-8.8,13.5-8.8,24.5c0,9.5,2.9,15.3,6.7,15.3c5.7,0,9.9-7.4,9.9-18.3
		C138.4,70.2,134.9,59.8,130.5,59.8z"/>
	<path class="st1" d="M154.9,82.7c-5.9,0-9.8,13-9.8,18.1c0,6.3,3.2,9.7,7.3,9.7c3.6,0,7.6-4.5,8.5-13.9
		C161.6,88.8,158.8,82.7,154.9,82.7z"/>
	<g>
		<path class="st1" d="M157,53.8c0,0,7.5,14.3,6.4,28.3c0,0-4.8-8-8.2-10C155.2,72.1,157.4,61.6,157,53.8z"/>
	</g>
	<g>
		<path class="st1" d="M131.7,24.8c0,0,7.2,13.8,8.5,26.6c0,0-5.2-6.7-9.6-6.8C130.6,44.6,131.6,33.2,131.7,24.8z"/>
	</g>
	<path class="st1" d="M69.5,59.8c-4.4,0-7.9,10.4-7.9,21.4s4.2,18.3,9.9,18.3c3.8,0,6.7-5.8,6.7-15.3C78.3,73.3,75.2,59.8,69.5,59.8
		z"/>
	<path class="st1" d="M45.1,82.7c-3.9,0-6.7,6.1-6,13.9c0.9,9.4,4.9,13.9,8.5,13.9c4.1,0,7.3-3.4,7.3-9.7
		C54.9,95.6,51,82.7,45.1,82.7z"/>
	<ellipse class="st1" cx="100" cy="74.5" rx="12.7" ry="24.2"/>
	<g>
		<path class="st1" d="M43,53.8c0,0-7.5,14.3-6.4,28.3c0,0,4.8-8,8.2-10C44.8,72.1,42.6,61.6,43,53.8z"/>
	</g>
	<g>
		<path class="st1" d="M68.3,24.8c0,0-7.2,13.8-8.5,26.6c0,0,5.2-6.7,9.6-6.8C69.4,44.6,68.4,33.2,68.3,24.8z"/>
	</g>
	<path class="st1" d="M100,9.6c0,0-6.5,13.3-7.4,31.3c0,0,2.1-1.4,7.4-1.4s7.4,1.4,7.4,1.4C106.5,22.9,100,9.6,100,9.6z"/>
	<path class="st1" d="M79.3,145.3c0-0.5-0.2-0.8,0-1.2c0.8-1.5,6.2-2.7,6.2-17.6c0-15.5-9.7-14.9-9.7-14.9s-9.3-0.4-32.2,11.9
		c0,0,0.2,35.8,22.9,56.8c3.7,2.3,11,2.7,11,2.7s9.6-0.4,9.6-17.3C87.1,147.4,79.3,146.3,79.3,145.3z M62,138.9
		c0-1.4-0.3-9.9-0.3-9.9s0-1.2,1.2-1.4c1.1-0.2,2.4-0.5,2.8-0.5c0.4,0,2.2,0,2.5,3.9c0.1,3.2,0.1,5.9,0.1,5.9s-0.2,2.5-2,3
		c-1.9,0.4-2.8,0.4-3.2,0.4C62.6,140.3,62,140.3,62,138.9z M66.9,167.8c-1,0-2.6-0.2-2.9-0.3c-0.4-0.1-0.9-0.3-1-1.8
		c0-1.4-0.4-11.8-0.4-11.8s-0.1-1.2,0.9-1.2s3,0,3,0s3,0,3.3,7.4C70,167.5,67.9,167.7,66.9,167.8z"/>
	<path class="st1" d="M108.1,120.7c0-3.8,0.3-3.3,2.6-6V104c0,0-2.7-0.9-11.5-0.9l0,0l0,0l0,0l0,0c-8.7,0-11.5,0.9-11.5,0.9v10.7
		c2.3,2.7,2.6,2.2,2.6,6l0.5,54.2c0,1.5,0.3,4-1.8,5.5l0.1,11.4c0,0,6.2,1.1,10.1,1.1l0,0l0,0l0,0l0,0c3.9,0,10-1,10-1l0.2-11.5
		c-2.1-1.4-1.8-4-1.8-5.5L108.1,120.7z"/>
	<path class="st1" d="M156.6,141.5c0,0-6.1-1.7-18.9-4c0,0,0.4-7,0.4-7.9s-0.7-4.3-3.7-4.3c-2.9,0-2.7,3.4-2.8,4.1
		c-0.1,0.7-1.3,37.8-1.3,38.6s0,3,2.1,3.3s4.2-1.2,4.4-3.7c0.1-2.5,0.4-8.9,0.4-8.9s-0.1-0.9-1.3-0.9c-1.3,0-1.5,0-1.5,0l0.4-13.8
		c0,0,12.9,0.9,20.5,2.6c0,0-3,13.9-12,25.2s-18.4,14.8-18.4,14.8s-9.6-0.5-11.4-18.2c-0.7-16.2,0.3-38.7,0.3-39.9
		c0.4-15,8.1-21.9,21-18.5c10.1,2.8,23.1,11.4,23.1,11.4S158.3,132.7,156.6,141.5z"/>
</g>
</svg>
