<?xml version="1.0" encoding="utf-8"?>
<!-- Generator: Adobe Illustrator 21.0.0, SVG Export Plug-In . SVG Version: 6.00 Build 0)  -->
<svg version="1.1" id="Layer_2_1_" xmlns="http://www.w3.org/2000/svg" xmlns:xlink="http://www.w3.org/1999/xlink" x="0px" y="0px"
	 viewBox="0 0 518 518" style="enable-background:new 0 0 518 518;" xml:space="preserve">
<style type="text/css">
	.st0{fill:#0D2240;}
</style>
<g id="new_7_">
	<g>
		<path class="st0" d="M82,355.8c-18.1,8.6-42,19.1-68.7,28.6c4.8,20,11.4,38.2,20,54.4c20-12.4,37.2-25.8,50.6-36.3
			C82,386.3,81,371.1,82,355.8z"/>
		<path class="st0" d="M125.9,207.9L125.9,207.9c-33.4-13.3-84-37.2-125.9-68.6v45.8c0,8.6,0,17.2,0,24.8
			c39.1,14.3,79.2,23.8,107.8,28.6C113.5,228,120.1,217.5,125.9,207.9z"/>
		<path class="st0" d="M173.6,154.5c-22.9-23.8-55.3-62-80.1-103l-64,21.9c35.3,44.8,85.9,83.9,119.2,105.9
			C156.4,170.7,165,162.1,173.6,154.5z"/>
		<path class="st0" d="M203.1,132.6L203.1,132.6c11.4-7.6,22.9-13.4,33.4-18.1c-9.5-25.8-21-63.9-27.7-103l-57.2,20
			C166.9,71.5,186.9,107.8,203.1,132.6z"/>
		<path class="st0" d="M94.4,274.7L94.4,274.7c-24.8,1-58.2,1-93.5-3.8c1,20,1.9,39.1,2.9,57.2c30.5-3.8,59.1-9.5,81.1-15.3l0,0
			C87.7,299.5,90.6,287.1,94.4,274.7z"/>
		<path class="st0" d="M93.4,456c-7.6,8.6-15.3,18.1-25.8,28.6c7.6,7.6,16.2,14.3,25.8,21c5.7,3.8,12.4,7.6,18.1,12.4
			C104.9,495.1,98.2,475,93.4,456z"/>
		<path class="st0" d="M367.2,220.3c5.7,4.8,21,0,21,0l-10.5-12.4l-22.9-15.3C353.9,192.7,360.5,215.6,367.2,220.3z"/>
		<polygon class="st0" points="441.6,349.1 428.3,337.7 435.9,356.8 458.8,355.8 		"/>
		<path class="st0" d="M275.6,0c-9.5,30.5-12.4,67.7-1.9,104.9l0,0l0,0c3.8-3.8,33.4-34.3,60.1-63.9c0,0,35.3,40.1-14.3,81.1
			c0,0,86.8,61.1,92.5,63c0,0-4.8,19.1,0,35.3L480.7,353l-34.3,41l-50.6-28.6l24.8,39.1c0,0-27.7,3.8-36.3-1
			c-4.8-24.8-26.7-64.9-26.7-64.9l-51.5-21c0,0-22.9-27.7-21-67.7c0,0-25.8,104.9,43.9,131.6l97.4,123.1
			c88.7-62,91.6-147.9,91.6-319.6V83.9L275.6,0z"/>
	</g>
</g>
</svg>
