<svg width="36" height="8" viewBox="0 0 36 8" fill="none" xmlns="http://www.w3.org/2000/svg">
<path d="M4.79996 0C2.15338 0 0 1.7945 0 4C0 6.2055 2.15338 8 4.79996 8C7.44654 8 9.59992 6.2055 9.59992 4C9.59992 1.7945 7.44654 0 4.79996 0Z" fill="white"/>
<path d="M31.2 0C28.5534 0 26.4 1.7945 26.4 4C26.4 6.2055 28.5534 8 31.2 8C33.8466 8 36 6.2055 36 4C36 1.7945 33.8466 0 31.2 0Z" fill="white"/>
<path d="M18 0C15.3534 0 13.2 1.7945 13.2 4C13.2 6.2055 15.3534 8 18 8C20.6466 8 22.8 6.2055 22.8 4C22.8 1.7945 20.6466 0 18 0Z" fill="white"/>
</svg>
